<svg width="15" height="16" viewBox="0 0 15 16" fill="none" xmlns="http://www.w3.org/2000/svg">
<path d="M5.62 6.79168L5.7506 3.26523C6.61157 3.66735 7.05275 3.6229 7.79682 3.26523L7.92743 6.79168C7.11167 6.82013 6.61006 6.82131 5.62 6.79168Z" fill="#0097E6"/>
<path d="M5.88123 1.95914C5.88123 2.91694 6.53427 3.09109 6.70842 3.09109H7.01317C7.31793 3.09109 7.57915 2.7428 7.66622 1.95914C7.75329 1.17548 6.79549 0 6.79549 0C6.79549 0 5.88123 1.00134 5.88123 1.95914Z" fill="#0097E6"/>
<path d="M0.0473577 11.7113C0.014378 11.0373 0.439186 7.5318 0.439186 7.5318C5.45527 7.19116 8.26736 7.13199 13.2824 7.35766C13.2824 7.35766 14.0226 10.144 13.892 10.5358C13.7613 10.9276 11.3233 12.4514 9.8866 12.4079C8.44989 12.3644 8.40636 11.363 7.23087 11.1453C6.05539 10.9276 4.67997 12.6612 3.79149 12.495C2.90302 12.3287 2.26772 11.363 1.70174 11.1453C1.13577 10.9276 0.0803374 12.3853 0.0473577 11.7113Z" fill="#0097E6"/>
<path d="M0.308521 15.8473C0.308521 15.8473 -0.0397703 13.0174 0.00376613 12.7126C0.0473026 12.4079 0.918033 11.6242 1.52754 11.7548C2.13705 11.8855 2.87717 13.0174 3.83497 13.0174C4.79278 13.0174 6.14241 11.7548 7.01314 11.7548C7.88386 11.7548 9.10289 13.148 9.84301 13.0174C10.5831 12.8868 13.6742 11.7113 13.979 11.2759C14.2837 10.8406 14.4579 15.8473 14.4579 15.8473C8.90405 16.0443 5.80417 16.0574 0.308521 15.8473Z" fill="#0097E6"/>
</svg>
