<svg width="15" height="16" viewBox="0 0 15 16" fill="none" xmlns="http://www.w3.org/2000/svg">
<path d="M14.0547 9.10387C8.66076 8.5333 5.69402 8.12207 0.5 7.23251C3.91471 5.21138 5.62089 3.69417 8.23829 0.202301C10.7977 3.54492 12.057 5.50051 14.0547 9.10387Z" fill="#0097E6"/>
<path d="M2.57365 5.00713C2.43067 3.44232 2.36798 2.55543 2.37134 0.910387V0C3.45068 0.125508 4.10387 0.14783 5.45655 0C5.32593 1.00045 5.31681 1.54541 5.45655 2.47828C4.60361 3.72796 4.00941 4.31717 2.57365 5.00713Z" fill="#0097E6"/>
<path d="M11.0706 9.40734C7.73008 9.03059 5.83549 8.75088 2.4219 8.14291C2.28292 11.1649 2.29068 12.8592 2.4219 15.8812C3.51057 16.0007 4.11937 16.0137 5.20364 15.9824C4.93768 14.0629 4.88058 13.023 4.95076 11.2281C6.44007 11.015 7.32152 11.0347 8.94634 11.2281C9.14849 13.0534 9.2092 14.0965 9.24981 15.9824C10.3983 16.0161 10.9828 16.011 11.7281 15.8812C11.7272 13.3243 11.6374 11.9008 11.0706 9.40734Z" fill="#0097E6"/>
</svg>
