<svg width="27" height="17" viewBox="0 0 27 17" fill="none" xmlns="http://www.w3.org/2000/svg">
<path d="M2.30879 13.8913C2.1804 13.7684 2.029 13.6721 1.86329 13.6078C1.53462 13.4728 1.16597 13.4728 0.837304 13.6078C0.671592 13.6721 0.520198 13.7684 0.391809 13.8913C0.268906 14.0197 0.172564 14.1711 0.108313 14.3368C0.00493159 14.5827 -0.0233137 14.8536 0.0271408 15.1155C0.0775953 15.3774 0.204489 15.6185 0.391809 15.8083C0.523029 15.9276 0.673706 16.0234 0.837304 16.0918C0.998898 16.1632 1.17362 16.2001 1.3503 16.2001C1.52697 16.2001 1.7017 16.1632 1.86329 16.0918C2.02689 16.0234 2.17757 15.9276 2.30879 15.8083C2.49611 15.6185 2.623 15.3774 2.67346 15.1155C2.72391 14.8536 2.69566 14.5827 2.59228 14.3368C2.52803 14.1711 2.43169 14.0197 2.30879 13.8913ZM6.75024 2.69997H25.65C26.0081 2.69997 26.3514 2.55774 26.6046 2.30457C26.8578 2.0514 27 1.70802 27 1.34998C27 0.991946 26.8578 0.648573 26.6046 0.395401C26.3514 0.14223 26.0081 0 25.65 0H6.75024C6.3922 0 6.04882 0.14223 5.79565 0.395401C5.54248 0.648573 5.40025 0.991946 5.40025 1.34998C5.40025 1.70802 5.54248 2.0514 5.79565 2.30457C6.04882 2.55774 6.3922 2.69997 6.75024 2.69997ZM2.30879 7.14142C2.11895 6.9541 1.87788 6.8272 1.61599 6.77675C1.35411 6.72629 1.08315 6.75454 0.837304 6.85792C0.673706 6.92629 0.523029 7.02217 0.391809 7.14142C0.268906 7.2698 0.172564 7.4212 0.108313 7.58691C0.0368914 7.7485 0 7.92323 0 8.09991C0 8.27658 0.0368914 8.45131 0.108313 8.6129C0.176678 8.7765 0.272564 8.92717 0.391809 9.05839C0.523029 9.17764 0.673706 9.27353 0.837304 9.34189C0.998898 9.41331 1.17362 9.4502 1.3503 9.4502C1.52697 9.4502 1.7017 9.41331 1.86329 9.34189C2.02689 9.27353 2.17757 9.17764 2.30879 9.05839C2.42803 8.92717 2.52392 8.7765 2.59228 8.6129C2.66371 8.45131 2.7006 8.27658 2.7006 8.09991C2.7006 7.92323 2.66371 7.7485 2.59228 7.58691C2.52803 7.4212 2.43169 7.2698 2.30879 7.14142ZM25.65 6.74992H6.75024C6.3922 6.74992 6.04882 6.89215 5.79565 7.14532C5.54248 7.39849 5.40025 7.74187 5.40025 8.09991C5.40025 8.45794 5.54248 8.80132 5.79565 9.05449C6.04882 9.30766 6.3922 9.44989 6.75024 9.44989H25.65C26.0081 9.44989 26.3514 9.30766 26.6046 9.05449C26.8578 8.80132 27 8.45794 27 8.09991C27 7.74187 26.8578 7.39849 26.6046 7.14532C26.3514 6.89215 26.0081 6.74992 25.65 6.74992ZM2.30879 0.391495C2.1804 0.268592 2.029 0.17225 1.86329 0.107999C1.61745 0.00461761 1.34649 -0.0236273 1.0846 0.0268271C0.82272 0.0772816 0.581649 0.204175 0.391809 0.391495C0.272564 0.522715 0.176678 0.673392 0.108313 0.83699C0.0368914 0.998584 0 1.17331 0 1.34998C0 1.52666 0.0368914 1.70138 0.108313 1.86298C0.176678 2.02658 0.272564 2.17725 0.391809 2.30847C0.523029 2.42772 0.673706 2.5236 0.837304 2.59197C1.08315 2.69535 1.35411 2.7236 1.61599 2.67314C1.87788 2.62269 2.11895 2.49579 2.30879 2.30847C2.42803 2.17725 2.52392 2.02658 2.59228 1.86298C2.66371 1.70138 2.7006 1.52666 2.7006 1.34998C2.7006 1.17331 2.66371 0.998584 2.59228 0.83699C2.52392 0.673392 2.42803 0.522715 2.30879 0.391495ZM25.65 13.4998H6.75024C6.3922 13.4998 6.04882 13.6421 5.79565 13.8952C5.54248 14.1484 5.40025 14.4918 5.40025 14.8498C5.40025 15.2079 5.54248 15.5512 5.79565 15.8044C6.04882 16.0576 6.3922 16.1998 6.75024 16.1998H25.65C26.0081 16.1998 26.3514 16.0576 26.6046 15.8044C26.8578 15.5512 27 15.2079 27 14.8498C27 14.4918 26.8578 14.1484 26.6046 13.8952C26.3514 13.6421 26.0081 13.4998 25.65 13.4998Z" fill="white"/>
</svg>
