<svg width="255" height="255" viewBox="0 0 255 255" fill="none" xmlns="http://www.w3.org/2000/svg">
<path d="M223.125 212.5H209.95L163.306 44.625C161.448 37.9075 157.438 31.9843 151.893 27.7626C146.347 23.5408 139.57 21.2532 132.6 21.25H121.975C115.078 21.3453 108.398 23.6752 102.938 27.89C97.478 32.1048 93.5325 37.977 91.6938 44.625L45.05 212.5H31.875C29.0571 212.5 26.3546 213.619 24.362 215.612C22.3694 217.605 21.25 220.307 21.25 223.125C21.25 225.943 22.3694 228.645 24.362 230.638C26.3546 232.631 29.0571 233.75 31.875 233.75H223.125C225.943 233.75 228.645 232.631 230.638 230.638C232.631 228.645 233.75 225.943 233.75 223.125C233.75 220.307 232.631 217.605 230.638 215.612C228.645 213.619 225.943 212.5 223.125 212.5ZM112.2 50.2563C112.843 47.958 114.24 45.9431 116.168 44.5361C118.095 43.129 120.44 42.4118 122.825 42.5H133.45C135.835 42.4118 138.18 43.129 140.107 44.5361C142.035 45.9431 143.432 47.958 144.075 50.2563L152.469 85H102.531L112.2 50.2563ZM96.5813 106.25H158.419L170 148.75H85L96.5813 106.25ZM67.15 212.5L78.9437 170H176.056L187.85 212.5H67.15Z" fill="#BA875C"/>
</svg>
