<svg width="165" height="160" viewBox="0 0 165 160" fill="none" xmlns="http://www.w3.org/2000/svg">
<path d="M95.5 56.5L79 67.5L91 83.5L107 71L95.5 56.5Z" fill="#DCDDE1"/>
<path d="M58 45L60 61L38 67.5L35.5 49L58 45Z" fill="#DCDDE1"/>
<path d="M8 68L22 75L17.5 93L0.5 86.5L8 68Z" fill="#DCDDE1"/>
<path d="M0 112.5L14.5 110L20 126.5L5.5 132L0 112.5Z" fill="#DCDDE1"/>
<path d="M22.5 149.5L31 138.5L46.5 143.5L40.5 157.5L22.5 149.5Z" fill="#DCDDE1"/>
<path d="M69 159.5L66 146.5L83.5 136.5L91 149.5L69 159.5Z" fill="#DCDDE1"/>
<path d="M111 123.5L94 121.5L97 99L112.5 101L111 123.5Z" fill="#DCDDE1"/>
<path d="M102 105C102 130.405 81.4051 151 56 151C30.5949 151 10 130.405 10 105C10 79.5949 30.5949 59 56 59C81.4051 59 102 79.5949 102 105ZM35.9189 105C35.9189 116.091 44.9095 125.081 56 125.081C67.0905 125.081 76.0811 116.091 76.0811 105C76.0811 93.9095 67.0905 84.9189 56 84.9189C44.9095 84.9189 35.9189 93.9095 35.9189 105Z" fill="#DCDDE1"/>
<path d="M82.5 52.5L101 51L99 35L81 37L82.5 52.5Z" fill="#DCDDE1"/>
<path d="M116 78V59.5H119L132.5 59L133.5 77L116 78Z" fill="#DCDDE1"/>
<path d="M158 58.5L142 53.5V51.5L149 36L164.5 42.5L158 58.5Z" fill="#DCDDE1"/>
<path d="M96.5 8.5L107 26.5L122.5 17L112.5 0L96.5 8.5Z" fill="#DCDDE1"/>
<path d="M148.5 5L134 16L145.5 27.5L158.5 18.5L148.5 5Z" fill="#DCDDE1"/>
<path d="M124.5 11C139.688 11 152 23.3122 152 38.5C152 53.6878 139.688 66 124.5 66C109.312 66 97 53.6878 97 38.5C97 23.3122 109.312 11 124.5 11ZM124.5 49.0821C130.344 49.0821 135.082 44.3443 135.082 38.5C135.082 32.6557 130.344 27.9179 124.5 27.9179C118.656 27.9179 113.918 32.6557 113.918 38.5C113.918 44.3443 118.656 49.0821 124.5 49.0821Z" fill="#DCDDE1"/>
</svg>
