<svg width="16" height="11" viewBox="0 0 16 11" fill="none" xmlns="http://www.w3.org/2000/svg">
<path d="M8.42145 6.33937C7.74707 6.39125 0.121362 2.50058 0.173237 1.98183C0.225113 1.46307 15.1653 -0.145069 15.684 0.010558C16.2028 0.166185 15.9953 0.425562 15.684 0.68494C15.3728 0.944318 9.09583 6.2875 8.42145 6.33937Z" fill="#0097E6"/>
<path d="M8.57708 7.06564C7.53957 7.11752 0.328868 2.65622 0.121366 3.1231C-0.0861361 3.58998 -0.0342608 10.5932 0.328868 10.7488C0.691997 10.9044 14.5946 10.9044 15.269 10.7488C15.9434 10.5932 15.9953 2.29309 15.9953 1.46308C15.9953 0.633074 9.61459 7.01376 8.57708 7.06564Z" fill="#0097E6"/>
</svg>
