<svg width="25" height="20" viewBox="0 0 25 20" fill="none" xmlns="http://www.w3.org/2000/svg">
<path d="M24.9555 2.51089C24.0535 2.9022 23.0997 3.16088 22.1236 3.27889C23.1534 2.66367 23.9251 1.69583 24.2955 0.554886C23.3278 1.13096 22.2685 1.53684 21.1636 1.75489C20.4251 0.953973 19.4416 0.420842 18.3674 0.239108C17.2933 0.0573742 16.1892 0.237316 15.2283 0.750714C14.2674 1.26411 13.5041 2.08192 13.0581 3.07589C12.612 4.06986 12.5085 5.18375 12.7638 6.24289C10.8071 6.14392 8.8932 5.63443 7.1463 4.74752C5.39939 3.86061 3.8586 2.61612 2.62402 1.09489C2.19099 1.85109 1.96345 2.70747 1.96403 3.57889C1.9625 4.38814 2.16109 5.18523 2.54212 5.89916C2.92316 6.6131 3.47482 7.22174 4.14798 7.67089C3.36557 7.6496 2.59988 7.43964 1.91603 7.05889V7.11889C1.9219 8.25275 2.31922 9.3498 3.04078 10.2244C3.76235 11.0991 4.76387 11.6977 5.87594 11.9189C5.44786 12.0492 5.00341 12.1179 4.55597 12.1229C4.24625 12.1193 3.93729 12.0912 3.63199 12.0389C3.94868 13.0143 4.56152 13.8667 5.38524 14.4775C6.20897 15.0883 7.2026 15.4271 8.22789 15.4469C6.49657 16.8092 4.35904 17.5527 2.15603 17.5589C1.75492 17.5602 1.35413 17.5362 0.956055 17.4869C3.20532 18.9392 5.82652 19.7102 8.50388 19.7069C10.3515 19.7261 12.1844 19.3769 13.8955 18.6798C15.6066 17.9827 17.1617 16.9515 18.4699 15.6467C19.7781 14.3418 20.8132 12.7894 21.5147 11.08C22.2161 9.37059 22.57 7.53856 22.5556 5.69089C22.5556 5.48689 22.5556 5.27089 22.5556 5.05489C23.4972 4.35266 24.3093 3.4918 24.9555 2.51089Z" fill="#CDE6F5"/>
</svg>
